<svg xmlns="http://www.w3.org/2000/svg" viewBox="0 0 500 500"><path style="fill:#e6e6e6" d="M0 382.4h500v.25H0zm449.63 8.82h18.77v.25h-18.77zm-76.56 6.86h8.69v.25h-8.69zm-93.11-3.45h19.36v.25h-19.36zm-199.03-.13h43.19v.25H80.93zm-15.23 0h6.33v.25H65.7zm123.6-5.92h93.68v.25H189.3zM237 337.8H43.91a5.71 5.71 0 0 1-5.7-5.71V60.66a5.71 5.71 0 0 1 5.7-5.66H237a5.71 5.71 0 0 1 5.71 5.71v271.38a5.71 5.71 0 0 1-5.71 5.71ZM43.91 55.2a5.46 5.46 0 0 0-5.45 5.46v271.43a5.46 5.46 0 0 0 5.45 5.46H237a5.47 5.47 0 0 0 5.46-5.46V60.66A5.47 5.47 0 0 0 237 55.2Zm409.4 282.6h-193.1a5.72 5.72 0 0 1-5.71-5.71V60.66a5.72 5.72 0 0 1 5.71-5.66h193.1a5.71 5.71 0 0 1 5.69 5.66v271.43a5.71 5.71 0 0 1-5.69 5.71ZM260.21 55.2a5.47 5.47 0 0 0-5.46 5.46v271.43a5.47 5.47 0 0 0 5.46 5.46h193.1a5.47 5.47 0 0 0 5.46-5.46V60.66a5.47 5.47 0 0 0-5.46-5.46Z"/><path style="fill:#fafafa" d="M58.71 73.68h202.25v144.13H58.71z"/><path style="fill:#f5f5f5" d="M60.46 73.68H264.7v144.13H60.46z"/><path transform="rotate(90 162.58 145.74)" style="fill:#fafafa" d="M96.4 48.86h132.36v193.76H96.4z"/><path style="fill:#fff" d="m100.98 211.92 30.74-132.36h40.3l-30.74 132.36h-40.3zm46.82 0 30.75-132.36h18.2L166 211.92h-18.2z"/><path transform="rotate(90 259.13 145.74)" style="fill:#fafafa" d="M192.95 145.41h132.36v.67H192.95z"/><path d="M54.78 73.44v57.12h15.11S97 112.85 103.21 76.42a6.06 6.06 0 0 0-6-7.09H58.89a4.11 4.11 0 0 0-4.11 4.11Zm0 162V135.17h15.11s30.67 59.05 34.22 100.27Z" style="fill:#e0e0e0"/><rect x="53.82" y="130.56" width="17.14" height="4.61" rx="1.51" style="fill:#f5f5f5"/><path d="M269 73.44v57.12h-15.14s-27.15-17.71-33.32-54.14a6.07 6.07 0 0 1 6-7.09h38.36a4.12 4.12 0 0 1 4.1 4.11Zm0 162V135.17h-15.14s-30.66 59.05-34.22 100.27Z" style="fill:#e0e0e0"/><rect x="252.8" y="130.56" width="17.14" height="4.61" rx="1.51" transform="rotate(180 261.365 132.86)" style="fill:#f5f5f5"/><path style="fill:#fafafa" d="M231.2 253.66h33.23V382.4H231.2z"/><path style="fill:#f4f8ff" d="M255.56 382.4h8.87v-14.87h-18.17l9.3 14.87z"/><path style="fill:#e0e0e0" d="M72.22 253.66h33.23V382.4H72.22z"/><path style="fill:#fafafa" d="M97.71 253.66h166.72v123.62H97.71z"/><path d="M147.8 231.8c0 12 11.56 21.86 25.7 21.86h12.76c14.13 0 25.69-9.84 25.69-21.86Z" style="fill:#ebebeb"/><path d="M140.4 204.33h24s-4.17 11-4.17 17.48 18.26 31.85-7.83 31.85-7.83-25.38-7.83-31.85-4.17-17.48-4.17-17.48Z" style="fill:#e0e0e0"/><path style="fill:#ebebeb" d="M104.59 261.19h152.96v31.17H104.59z"/><path style="fill:#fafafa" d="M106.58 382.4h-8.87v-14.87h18.18l-9.31 14.87zm69.79-105.63a4.7 4.7 0 1 0 4.7-4.7 4.7 4.7 0 0 0-4.7 4.7Z"/><path style="fill:#ebebeb" d="M104.59 299.89h152.96v31.17H104.59z"/><path d="M176.37 315.47a4.7 4.7 0 1 0 4.7-4.7 4.7 4.7 0 0 0-4.7 4.7Z" style="fill:#fafafa"/><path style="fill:#ebebeb" d="M104.59 338.58h152.96v31.17H104.59z"/><circle cx="181.07" cy="354.17" r="4.7" style="fill:#fafafa"/><path style="fill:#e0e0e0" d="M295.65 71.94h74.23v52.84h-74.23z"/><path style="fill:#f5f5f5" d="M299.87 71.94h76.07v52.84h-76.07z"/><path transform="rotate(90 337.905 98.355)" style="fill:#fff" d="M316.34 65.17h43.14v66.37h-43.14z"/><path transform="rotate(90 337.905 98.355)" style="fill:#f5f5f5" d="M328.9 76.85h18.01v43.01H328.9z"/><path style="fill:#e0e0e0" d="M384.92 98.36h45.18v47.38h-45.18z"/><path style="fill:#f5f5f5" d="M389.15 98.36h47.03v47.38h-47.03z"/><path transform="rotate(90 412.66 122.05)" style="fill:#fff" d="M393.82 103.38h37.68v37.33h-37.68z"/><path d="M405.68 122.05a6.28 6.28 0 0 1 6.27-6.28h1.42a6.28 6.28 0 0 1 6.27 6.28 6.27 6.27 0 0 1-6.27 6.27H412a6.27 6.27 0 0 1-6.32-6.27Z" style="fill:#f5f5f5"/><path style="fill:#fafafa" d="M500 161.85H359.01v27.57h-21.69v27.57h-21.69v27.57h-21.69v27.57h-21.69v27.56h-21.69v27.57h-21.69v27.57h-21.69v27.57H500V161.85z"/><path style="fill:#ebebeb" d="M204.95 354.83h123.63v8.27H204.95zm21.69-27.57h123.63v8.27H226.64zm21.69-27.57h123.63v8.27H248.33zm21.69-27.57h123.63v8.27H270.02zm21.69-27.56h123.63v8.27H291.71zm21.69-27.57h123.63v8.27H313.4zm21.69-27.57h123.63v8.27H335.09zm21.69-27.57h123.63v8.27H356.78z"/><path style="fill:#fff" d="M478.31 161.85v27.57h-21.69v27.57h-21.69v27.57h-21.69v27.57h-21.69v27.56h-21.69v27.57h-21.69v27.57h-21.69v27.57H500V161.85h-21.69z"/><ellipse cx="250" cy="416.24" rx="193.89" ry="11.32" style="fill:#f5f5f5"/><path d="M365.15 162c1.4 4.69 8.62 13.47 9.19 19.86s-11.74 16.61-11.74 16.61-9.2-30.76-3.44-34.35 5.99-2.12 5.99-2.12Z" style="fill:#263238"/><path d="M339.87 195.23c-2.18 1.82-4.32 3.35-6.55 4.92s-4.53 3-6.87 4.34a77.83 77.83 0 0 1-7.25 3.79c-1.26.57-2.51 1.13-3.81 1.62-.64.26-1.29.51-1.95.73l-2 .7a13.24 13.24 0 0 1-5.26.38 30.07 30.07 0 0 1-4.36-.84 57.61 57.61 0 0 1-7.81-2.78 104.07 104.07 0 0 1-14.19-7.55l1.87-3.48c2.36 1 4.78 2 7.18 2.87s4.82 1.79 7.24 2.54a60.74 60.74 0 0 0 7.2 1.88 23.5 23.5 0 0 0 3.39.41 7.07 7.07 0 0 0 2.52-.26 64.62 64.62 0 0 0 6.68-3c1.11-.58 2.21-1.17 3.29-1.81s2.18-1.26 3.25-1.92c2.15-1.33 4.25-2.74 6.33-4.19s4.15-3 6-4.47Z" style="fill:#e58a7b"/><path d="M345.15 184.58c-2.48-1.94-12.74 4.41-15.85 7.06l2.27 13.73s14.75-6.18 15.63-10.4c.93-4.41-.2-8.91-2.05-10.39Z" style="fill:#d32f2f"/><path d="M345.15 184.58c-2.48-1.94-12.74 4.41-15.85 7.06l2.27 13.73s14.75-6.18 15.63-10.4c.93-4.41-.2-8.91-2.05-10.39Z" style="opacity:.2"/><path d="m379.66 226.13-31.14 6.07c-16.09-43.57-12.59-45-12.59-45a62.53 62.53 0 0 1 7-3.3l.42-.16c2-.73 2.4-.84 5.06-1.62 4.58-1.09 8.85-2 14.14-2.75l1-.14c1-.12 1.91-.22 2.83-.31.62-.07 1.24-.11 1.83-.15l2-.11c3.42-.17 5.87-.12 5.87-.12-.95 27.21.59 35.02 3.58 47.59Z" style="fill:#d32f2f"/><path d="m379.66 226.13-31.14 6.07c-16.09-43.57-12.59-45-12.59-45a62.53 62.53 0 0 1 7-3.3l.42-.16c2-.73 2.4-.84 5.06-1.62 4.58-1.09 8.85-2 14.14-2.75l1-.14c1-.12 1.91-.22 2.83-.31.62-.07 1.24-.11 1.83-.15l2-.11c3.42-.17 5.87-.12 5.87-.12-.95 27.21.59 35.02 3.58 47.59Z" style="opacity:.2"/><path d="M355.27 165.13c-2 3.31 5.25 4.84 9.54 1.45 3.43-2.72 2.62-9-.32-10.46s-9.22 9.01-9.22 9.01Z" style="fill:#d32f2f"/><path d="M355.27 165.13c-2 3.31 5.25 4.84 9.54 1.45 3.43-2.72 2.62-9-.32-10.46s-9.22 9.01-9.22 9.01Z" style="opacity:.4"/><path style="fill:#e58a7b" d="m385.58 406.47-7.79.58-2.85-17.93 7.79-.58 2.85 17.93zm55.1-25.06-6.61 4.16-11.77-13.96 6.61-4.17 11.77 13.97z"/><path style="fill:#cf6f64" d="m374.94 389.12 1.58 9.96 7.68-1.29-1.46-9.24-7.8.57zm53.98-21.67-6.62 4.16 4.88 5.78 6.76-3.99-5.02-5.95z"/><path d="M349 232.2s-.11 61.82 4.94 85.1c5.26 24.22 20.73 79.32 20.73 79.32l11.22-1.45s-8.77-55.66-12.51-79.73c-4.07-26.23-1.57-87.68-1.57-87.68Z" style="fill:#d32f2f"/><path d="M349 232.2s-.11 61.82 4.94 85.1c5.26 24.22 20.73 79.32 20.73 79.32l11.22-1.45s-8.77-55.66-12.51-79.73c-4.07-26.23-1.57-87.68-1.57-87.68Z" style="opacity:.7000000000000001"/><path d="m371.11 255.16-5.5-5.48c.21 23.75 1.54 35.48 6.11 48.26-.72-13.51-.78-29.49-.61-42.78Z" style="opacity:.5"/><path d="M356.74 230.6s16.77 51.09 25.09 80.52c8.78 31.05 42.44 65.39 42.44 65.39l9.66-5.58s-23-32.6-31.46-61.57c-17.2-58.81-10.13-71.27-22.82-83.23Z" style="fill:#d32f2f"/><path d="M356.74 230.6s16.77 51.09 25.09 80.52c8.78 31.05 42.44 65.39 42.44 65.39l9.66-5.58s-23-32.6-31.46-61.57c-17.2-58.81-10.13-71.27-22.82-83.23Z" style="opacity:.7000000000000001"/><path d="M343.56 147.09c4.46 1.49 8.51 12.56 8.68 16.92s-12.92 10.37-12.92 10.37-5.77-14-4.16-23c.7-3.91 8.4-4.29 8.4-4.29Z" style="fill:#263238"/><path d="m282.35 197.43-5.29-5.76-1.73 7.22s3.76 3.32 6.8 2.18Z" style="fill:#e58a7b"/><path style="fill:#e58a7b" d="m271.7 190.02-3.7 2.94 7.33 5.93 1.73-7.22-5.36-1.65z"/><path d="m432 384.08 6.18-6.23a.63.63 0 0 1 .82-.06l5.63 4.18a1.25 1.25 0 0 1 .11 1.87c-2.2 2.13-3.36 3.05-6.08 5.79-1.67 1.69-3.94 4.32-6.25 6.65s-4.74.16-4-1c3.37-5.27 2.77-7.24 3-9.92a2 2 0 0 1 .59-1.28Zm-54.73 21.85h8.78a.66.66 0 0 1 .65.54l1.38 6.94a1.18 1.18 0 0 1-1.17 1.39c-3.07-.05-4.55-.23-8.41-.23-2.37 0-7.27.24-10.55.24s-3.63-3.24-2.28-3.53c6-1.32 8.35-3.13 10.32-4.87a2 2 0 0 1 1.28-.48Z" style="fill:#263238"/><path d="m377.09 194.31-4.8 2.86 5.54 20.83c-1.21-6.31-.67-13.24-.74-23.69Z" style="fill:#d32f2f;opacity:.27;mix-blend-mode:multiply"/><path d="M349.81 161.79c3.41 2.85 8.36 7 14.19 2.15 5-4.18 8.5-15.15-.47-15.55-4.69-.21-13.72 13.4-13.72 13.4Z" style="fill:#263238"/><path d="M358.05 163.74c0 4.72.73 13.23 4.5 15.65 0 0-.34 4.86-8.8 6.5-9.29 1.81-5.34-3.75-5.34-3.75 4.84-2.2 4-5.94 2.4-9.3Z" style="fill:#e58a7b"/><path d="m355.1 167.45-4.28 5.39a15.19 15.19 0 0 1 .92 2.42c1.88-.66 4.13-3.3 3.94-5.37a6.83 6.83 0 0 0-.58-2.44Z" style="fill:#cf6f64"/><path d="M358.5 152.9c1 7.69 1.61 10.92-1.47 15.57-4.63 7-14.29 6.55-17.58-.68-3-6.51-4.12-18 2.72-22.45a10.57 10.57 0 0 1 16.33 7.56Z" style="fill:#e58a7b"/><path d="M345.14 139.43c-5.2 3.69 5.23 4.78 5.24 10.13 0 2.21 3.63 9.22 8.79 8.82l5-8.88c5.26-8.5-7.17-18.5-19.03-10.07Z" style="fill:#263238"/><path d="M345.14 139.43c-9.15-.48-13.14 6.8-12.09 13.34a59.6 59.6 0 0 1 19.54-1.55c12.54 1.28-7.45-11.79-7.45-11.79Z" style="fill:#263238"/><path d="M361 159.53a5.65 5.65 0 0 1-1.31 4.12c-1.29 1.51-3 .62-3.6-1.17-.51-1.62-.45-4.35 1.29-5.21a2.55 2.55 0 0 1 3.62 2.26Z" style="fill:#e58a7b"/><path d="M347.39 157.27c.12.62-.11 1.18-.51 1.26s-.83-.36-.95-1 .11-1.19.51-1.27.83.39.95 1.01Zm-6.99 1.36c.12.62-.11 1.19-.51 1.27s-.83-.36-.95-1 .11-1.19.51-1.26.83.36.95.99Z" style="fill:#263238"/><path d="m339.64 157.65-1.57-.13s.99 1.01 1.57.13Z" style="fill:#263238"/><path d="M342.46 159.34a17.1 17.1 0 0 1-1.44 4.37 2.71 2.71 0 0 0 2.29 0Z" style="fill:#df5753"/><path d="M345.92 165.71a.18.18 0 0 1-.18-.15.18.18 0 0 1 .15-.21 5 5 0 0 0 3.62-2.7.18.18 0 1 1 .34.14 5.27 5.27 0 0 1-3.89 2.92Zm3.08-11.1a.38.38 0 0 1-.25-.09 2.94 2.94 0 0 0-2.56-.76.37.37 0 0 1-.19-.76 3.71 3.71 0 0 1 3.25.93.37.37 0 0 1 0 .52.36.36 0 0 1-.25.16ZM336.53 156a.32.32 0 0 1-.14 0 .37.37 0 0 1-.2-.49 3.67 3.67 0 0 1 2.53-2.23.36.36 0 0 1 .43.3.36.36 0 0 1-.29.43 3 3 0 0 0-2 1.79.38.38 0 0 1-.33.2Z" style="fill:#263238"/><path d="M429.68 387.71a1.06 1.06 0 0 1-.86-.48.63.63 0 0 1-.11-.62c.35-.94 3.11-1.54 3.42-1.61a.19.19 0 0 1 .19.08.17.17 0 0 1 0 .2c-.54.89-1.6 2.38-2.59 2.43Zm2.09-2.25c-1.09.28-2.53.78-2.71 1.28a.25.25 0 0 0 .06.27.68.68 0 0 0 .6.33c.53-.03 1.28-.72 2.05-1.88Z" style="fill:#d32f2f"/><path d="M431.32 385.46c-1 0-2.25-.25-2.62-.79a.65.65 0 0 1 .07-.81 1 1 0 0 1 .73-.38h.08c1.12 0 2.66 1.51 2.72 1.57a.18.18 0 0 1 .05.18.19.19 0 0 1-.13.13 3.61 3.61 0 0 1-.9.1Zm-1.74-1.61h-.06a.6.6 0 0 0-.46.24c-.14.19-.1.3-.05.37.3.46 1.83.72 2.77.61a4.42 4.42 0 0 0-2.2-1.22ZM374.4 407.3a3 3 0 0 1-1.91-.48 1 1 0 0 1-.38-.89.58.58 0 0 1 .28-.5c.92-.54 4.14 1.06 4.5 1.24a.19.19 0 0 1 .1.19.19.19 0 0 1-.14.16 13.33 13.33 0 0 1-2.45.28Zm-1.48-1.62a.66.66 0 0 0-.34.07.19.19 0 0 0-.1.19.7.7 0 0 0 .25.6c.5.43 1.79.5 3.49.22a10.46 10.46 0 0 0-3.3-1.08Z" style="fill:#d32f2f"/><path d="M376.81 407h-.07c-1-.43-2.93-2.13-2.79-3 0-.2.18-.46.68-.51h.15c1.74 0 2.19 3.18 2.21 3.32a.2.2 0 0 1-.07.18.2.2 0 0 1-.11.01Zm-2-3.16h-.11c-.32 0-.34.15-.34.19-.08.53 1.24 1.86 2.24 2.45-.2-.78-.71-2.62-1.83-2.62Z" style="fill:#d32f2f"/><path d="m346.63 156.29-1.57-.14s.99 1.02 1.57.14Z" style="fill:#263238"/><path d="M353.5 192.54c-16.73 3.73-11.56-6.39-10.56-8.62l.42-.16c2-.73 2.4-.84 5.06-1.62a100.71 100.71 0 0 1 14.14-2.75l1-.14c1-.13 1.91-.23 2.83-.31.62-.07 1.24-.11 1.83-.15l2-.12c.34 1.56 1.17 9.9-16.72 13.87Z" style="fill:#e58a7b"/><path d="m379.76 224.21 1.95 2.52c.15.19-.06.46-.42.53l-32.66 6.36c-.28.06-.54 0-.59-.21l-.83-2.73c0-.19.16-.4.46-.46l31.54-6.14a.57.57 0 0 1 .55.13Z" style="fill:#26395a"/><path d="m376.21 228.56.85-.16c.17 0 .28-.14.25-.25l-1.1-3.54c0-.11-.2-.16-.37-.13l-.84.16c-.17 0-.28.15-.25.25l1.1 3.55c.03.1.2.16.36.12Z" style="fill:#d32f2f"/><path d="m357.08 240.36-6.51-2.42 1 6.19s4.72 1.7 7.13-.48Z" style="fill:#e58a7b"/><path style="fill:#e58a7b" d="m344.37 239.58-1.55 4.06 8.75.49-1-6.19-6.2 1.64z"/><path d="m351.06 233.46.85-.16c.16 0 .28-.14.24-.25l-1.1-3.54c0-.11-.19-.16-.36-.13l-.85.16c-.17 0-.28.15-.24.25l1.1 3.55c.03.1.19.16.36.12Zm12.58-2.46.84-.16c.17 0 .28-.14.25-.25l-1.1-3.54c0-.11-.2-.16-.37-.13l-.84.16c-.17 0-.28.15-.25.25l1.1 3.55a.32.32 0 0 0 .37.12Zm-3.56-55.58c.71-.27 1.6 2.23 1.38 2.55-.51.73-9.85 3.28-10.27 1.85a6.24 6.24 0 0 1 .35-2.28c.27-.48 2.34.4 8.54-2.12Z" style="fill:#d32f2f"/><path d="M358.5 175.48c.36-.83 1.39-2.16 2.29-1.4s1.28 2.4.69 2.67-3.6.12-2.98-1.27Z" style="fill:#d32f2f"/><path d="M360.41 175.91c.62-.66 2-1.57 2.63-.55s.4 2.69-.24 2.74-3.44-1.1-2.39-2.19Z" style="fill:#d32f2f"/><path d="M360.75 175.76a2.77 2.77 0 0 1 1.39-2.67c1.14-.74 2.25-1.22 2.69-2a5.52 5.52 0 0 1 .11 2.24c-.23 1.07-3.78 1.89-3.54 2.82Z" style="fill:#d32f2f"/><path d="M360.6 175.71a2.77 2.77 0 0 1-.28-3c.54-1.24 1.22-2.24 1.18-3.12a5.57 5.57 0 0 1 1.31 1.82c.38 1-2.15 3.63-1.44 4.29Zm69.55 195.35a.12.12 0 0 1-.1-.06c-.23-.32-23.09-32.94-31.47-61.6A420 420 0 0 1 386 253.32c-1.73-10.68-2.78-17.13-6.22-22.42a.13.13 0 0 1 0-.18.13.13 0 0 1 .17 0c3.48 5.34 4.53 11.81 6.26 22.52a421.15 421.15 0 0 0 12.6 56c8.37 28.62 31.21 61.2 31.44 61.53a.14.14 0 0 1 0 .17.13.13 0 0 1-.1.12Z" style="fill:#d32f2f"/><path d="M430.15 371.06a.12.12 0 0 1-.1-.06c-.23-.32-23.09-32.94-31.47-61.6A420 420 0 0 1 386 253.32c-1.73-10.68-2.78-17.13-6.22-22.42a.13.13 0 0 1 0-.18.13.13 0 0 1 .17 0c3.48 5.34 4.53 11.81 6.26 22.52a421.15 421.15 0 0 0 12.6 56c8.37 28.62 31.21 61.2 31.44 61.53a.14.14 0 0 1 0 .17.13.13 0 0 1-.1.12Z" style="opacity:.4"/><path style="fill:#d32f2f" d="m387.9 395.13-15.28 1.98-1-4.26 15.91-3.37.37 5.65zm46.84-24.54-11.27 6.51-3.8-3.25 12.33-8.34 2.74 5.08z"/><path d="M381.85 189.13c.54 2.78.85 5.4 1.15 8.11s.41 5.39.49 8.1a80.09 80.09 0 0 1-.18 8.19c-.11 1.37-.23 2.74-.42 4.12-.08.68-.17 1.37-.3 2.06l-.37 2.12a13.32 13.32 0 0 1-2.21 4.79 29.67 29.67 0 0 1-2.84 3.41 56.66 56.66 0 0 1-6.2 5.5 103.64 103.64 0 0 1-13.46 8.79l-2.14-3.32c2-1.59 4-3.23 6-4.9s3.9-3.36 5.73-5.12a62.64 62.64 0 0 0 5.11-5.39 23.76 23.76 0 0 0 2-2.78 7 7 0 0 0 1-2.33 66.19 66.19 0 0 0 .57-7.32v-3.75c0-1.25-.05-2.52-.11-3.78-.12-2.52-.35-5-.62-7.56s-.62-5.09-1-7.46Z" style="fill:#e58a7b"/><path d="M380.64 180.63c4.27 3.46 3.25 13.74 3.25 13.74l-14.4 4.74s.66-11.85 1.38-16.11c.84-5.07 5.56-5.78 9.77-2.37Z" style="fill:#d32f2f"/><path d="M380.64 180.63c4.27 3.46 3.25 13.74 3.25 13.74l-14.4 4.74s.66-11.85 1.38-16.11c.84-5.07 5.56-5.78 9.77-2.37Z" style="opacity:.2"/><path d="M190.41 223.53a11 11 0 0 0-10.72-8.53h-80a11 11 0 0 0-11 11v177.82a11 11 0 0 0 11 11h254a11 11 0 0 0 11-11V254.45a11 11 0 0 0-11-11H215.44a25.68 25.68 0 0 1-25.03-19.92Z" style="fill:#d32f2f"/><path d="M190.41 223.53a11 11 0 0 0-10.72-8.53h-80a11 11 0 0 0-11 11v177.82a11 11 0 0 0 11 11h254a11 11 0 0 0 11-11V254.45a11 11 0 0 0-11-11H215.44a25.68 25.68 0 0 1-25.03-19.92Z" style="opacity:.6000000000000001"/><path d="m162.17 168.15 7.13 23.09a11.61 11.61 0 0 0 14.51 7.66l23.08-7.13Z" style="fill:#d32f2f;opacity:.22"/><path d="m162.17 168.15-82.5 25.49a11.59 11.59 0 0 0-7.67 14.5l47.1 152.48a11.6 11.6 0 0 0 14.51 7.66l105.59-32.62a11.59 11.59 0 0 0 7.66-14.5l-40-129.39Z" style="fill:#d32f2f"/><path d="m162.17 168.15-82.5 25.49a11.59 11.59 0 0 0-7.67 14.5l47.1 152.48a11.6 11.6 0 0 0 14.51 7.66l105.59-32.62a11.59 11.59 0 0 0 7.66-14.5l-40-129.39Z" style="fill:#fff;opacity:.8"/><g style="opacity:.28"><path d="m206.56 329-68.64 21.2a5.08 5.08 0 0 1-6.34-3.34 5.08 5.08 0 0 1 3.35-6.33l68.64-21.21a5.08 5.08 0 0 1 6.34 3.35 5.08 5.08 0 0 1-3.35 6.33Z" style="fill:#d32f2f"/></g><g style="opacity:.28"><path d="m132.69 204.58-36.3 11.21a5.09 5.09 0 0 1-6.34-3.34 5.09 5.09 0 0 1 3.35-6.34l36.3-11.21a5.07 5.07 0 0 1 6.34 3.34 5.09 5.09 0 0 1-3.35 6.34Z" style="fill:#d32f2f"/></g><g style="opacity:.28"><path d="m162.31 216.47-60 18.53a5.08 5.08 0 0 1-6.31-3.35 5.07 5.07 0 0 1 3.34-6.33l60-18.53a5.08 5.08 0 0 1 6.34 3.34 5.1 5.1 0 0 1-3.37 6.34Z" style="fill:#d32f2f"/></g><g style="opacity:.28"><path d="m195.81 227.16-87.56 27a5.07 5.07 0 0 1-6.33-3.34 5.09 5.09 0 0 1 3.34-6.34l87.56-27a5.08 5.08 0 0 1 6.33 3.34 5.08 5.08 0 0 1-3.34 6.34Z" style="fill:#d32f2f"/></g><g style="opacity:.28"><path d="m201.74 246.36-50.9 15.73a5.08 5.08 0 0 1-6.33-3.35 5.08 5.08 0 0 1 3.34-6.33l50.9-15.73a5.1 5.1 0 0 1 6.34 3.35 5.08 5.08 0 0 1-3.35 6.33Z" style="fill:#d32f2f"/></g><g style="opacity:.28"><path d="m127.5 269.3-13.31 4.11a5.08 5.08 0 0 1-6.34-3.34 5.08 5.08 0 0 1 3.35-6.34l13.31-4.11a5.09 5.09 0 0 1 6.34 3.34 5.1 5.1 0 0 1-3.35 6.34Z" style="fill:#d32f2f"/></g><g style="opacity:.28"><path d="m207.68 265.57-87.56 27.05a5.08 5.08 0 0 1-6.33-3.35 5.07 5.07 0 0 1 3.34-6.33l87.56-27.05a5.08 5.08 0 0 1 6.33 3.34 5.08 5.08 0 0 1-3.34 6.34Z" style="fill:#d32f2f"/></g><g style="opacity:.28"><path d="m179.82 295.21-53.77 16.61a5.08 5.08 0 0 1-6.33-3.34 5.09 5.09 0 0 1 3.34-6.34l53.77-16.61a5.09 5.09 0 0 1 6.34 3.35 5.07 5.07 0 0 1-3.35 6.33Z" style="fill:#d32f2f"/></g><g style="opacity:.28"><path d="m213.61 284.78-14.35 4.43a5.09 5.09 0 0 1-6.34-3.35 5.08 5.08 0 0 1 3.35-6.33l14.35-4.43a5.07 5.07 0 0 1 6.33 3.34 5.08 5.08 0 0 1-3.34 6.34Z" style="fill:#d32f2f"/></g><g style="opacity:.28"><path d="M219.54 304 132 331a5.08 5.08 0 0 1-6.34-3.35 5.07 5.07 0 0 1 3.35-6.33l87.55-27.05a5.1 5.1 0 0 1 6.34 3.35 5.08 5.08 0 0 1-3.36 6.38Z" style="fill:#d32f2f"/></g><path d="m221.42 110.81 26.18 58.34a6.31 6.31 0 0 1-3.16 8.32l-111.06 49.85a6.3 6.3 0 0 1-8.32-3.16l-26.19-58.34a6.3 6.3 0 0 1 3.16-8.33l111.06-49.85a6.32 6.32 0 0 1 8.33 3.17Z" style="fill:#d32f2f"/><path d="m221.42 110.81 26.18 58.34a6.31 6.31 0 0 1-3.16 8.32l-111.06 49.85a6.3 6.3 0 0 1-8.32-3.16l-26.19-58.34a6.3 6.3 0 0 1 3.16-8.33l111.06-49.85a6.32 6.32 0 0 1 8.33 3.17Z" style="opacity:.30000000000000004"/><path transform="rotate(-24.16 202.345 109.176)" style="fill:#d32f2f" d="M200.4 108.68h3.89v1h-3.89z"/><path transform="rotate(-24.16 190.05 114.68)" style="fill:#d32f2f" d="M184 114.19h12.13v1H184z"/><path transform="rotate(-24.18 99.807 175.283)" style="fill:#d32f2f" d="M99.33 171.59h1v7.4h-1z"/><path d="m217.7 107.43-28.64 56.1a25.65 25.65 0 0 1-29.3 13.15l-60.95-15.89a6.39 6.39 0 0 1 3.22-3.3l111.06-49.85a6.3 6.3 0 0 1 4.61-.21Z" style="fill:#d32f2f;opacity:.6000000000000001"/><path d="m257.07 179.23-86.18 5.32A11.6 11.6 0 0 0 160 196.84l9.83 159.28A11.6 11.6 0 0 0 182.14 367l110.3-6.81a11.58 11.58 0 0 0 10.86-12.29L295 212.73Z" style="fill:#d32f2f"/><path d="m257.07 179.23-86.18 5.32A11.6 11.6 0 0 0 160 196.84l9.83 159.28A11.6 11.6 0 0 0 182.14 367l110.3-6.81a11.58 11.58 0 0 0 10.86-12.29L295 212.73Z" style="fill:#fff;opacity:.8"/><g style="opacity:.22"><path d="m262.28 346-71.71 4.43a5.08 5.08 0 0 1-5.36-4.75 5.09 5.09 0 0 1 4.74-5.37l71.71-4.42a5.08 5.08 0 0 1 5.37 4.74 5.08 5.08 0 0 1-4.75 5.37Z" style="fill:#d32f2f"/></g><g style="opacity:.22"><path d="M219.84 207.68 181.91 210a5.09 5.09 0 0 1-5.37-4.74 5.09 5.09 0 0 1 4.75-5.37l37.93-2.34a5.07 5.07 0 0 1 5.36 4.74 5.08 5.08 0 0 1-4.74 5.39Z" style="fill:#d32f2f"/></g><g style="opacity:.22"><path d="m245.82 226.22-62.67 3.86a5.07 5.07 0 0 1-5.37-4.74 5.08 5.08 0 0 1 4.75-5.37l62.66-3.86a5.07 5.07 0 0 1 5.37 4.74 5.08 5.08 0 0 1-4.74 5.37Z" style="fill:#d32f2f"/></g><g style="opacity:.22"><path d="m275.85 244.51-91.46 5.64a5.09 5.09 0 0 1-5.39-4.75 5.07 5.07 0 0 1 4.74-5.36l91.47-5.65a5.08 5.08 0 0 1 5.36 4.75 5.08 5.08 0 0 1-4.72 5.37Z" style="fill:#d32f2f"/></g><g style="opacity:.22"><path d="m277.09 264.57-53.17 3.28a5.08 5.08 0 0 1-5.37-4.74 5.07 5.07 0 0 1 4.74-5.37l53.17-3.28a5.07 5.07 0 0 1 5.37 4.74 5.08 5.08 0 0 1-4.74 5.37Z" style="fill:#d32f2f"/></g><g style="opacity:.22"><path d="m199.53 269.35-13.91.86a5.07 5.07 0 0 1-5.36-4.74 5.08 5.08 0 0 1 4.74-5.37l13.91-.86a5.09 5.09 0 0 1 5.37 4.75 5.08 5.08 0 0 1-4.75 5.36Z" style="fill:#d32f2f"/></g><g style="opacity:.22"><path d="m278.33 284.63-91.47 5.64a5.08 5.08 0 0 1-5.37-4.74 5.09 5.09 0 0 1 4.75-5.37l91.46-5.64a5.08 5.08 0 0 1 5.37 4.75 5.07 5.07 0 0 1-4.74 5.36Z" style="fill:#d32f2f"/></g><g style="opacity:.22"><path d="m244.27 306.87-56.17 3.47a5.09 5.09 0 0 1-5.37-4.75 5.08 5.08 0 0 1 4.75-5.36l56.17-3.47a5.08 5.08 0 0 1 5.36 4.75 5.06 5.06 0 0 1-4.74 5.36Z" style="fill:#d32f2f"/></g><g style="opacity:.22"><path d="m279.56 304.7-15 .92a5.07 5.07 0 0 1-5.36-4.74 5.07 5.07 0 0 1 4.74-5.37l15-.92a5.07 5.07 0 0 1 5.37 4.74 5.09 5.09 0 0 1-4.75 5.37Z" style="fill:#d32f2f"/></g><g style="opacity:.22"><path d="m280.8 324.76-91.46 5.64a5.08 5.08 0 0 1-5.37-4.74 5.08 5.08 0 0 1 4.74-5.37l91.47-5.64a5.07 5.07 0 0 1 5.36 4.74 5.07 5.07 0 0 1-4.74 5.37Z" style="fill:#d32f2f"/></g><path d="m257.07 179.23 1.49 24.12a11.6 11.6 0 0 0 12.29 10.87l24.15-1.49Z" style="fill:#d32f2f;opacity:.22"/><path d="M228.85 239.4a8.65 8.65 0 0 0-9-8.53h-80.1c-6.07 0-12 4.93-13.14 11L95 403.82c-1.18 6.07 2.78 11 8.85 11h254c6.07 0 11.95-4.92 13.14-11l26.07-133.5c1.18-6.08-2.78-11-8.85-11H250c-12 0-20.74-8.26-21.15-19.92Z" style="fill:#d32f2f;opacity:.5"/></svg>